<svg width="14" height="18" viewBox="0 0 14 18" fill="none" xmlns="http://www.w3.org/2000/svg">
<path d="M13.6666 7.33329C13.6666 11.015 6.99998 17.3333 6.99998 17.3333C6.99998 17.3333 0.333313 11.015 0.333313 7.33329C0.333313 5.56518 1.03569 3.86949 2.28593 2.61925C3.53618 1.36901 5.23187 0.666626 6.99998 0.666626C8.76809 0.666626 10.4638 1.36901 11.714 2.61925C12.9643 3.86949 13.6666 5.56518 13.6666 7.33329Z" fill="#1F4C6B"/>
<path d="M7 7.99988C7.26522 7.99988 7.51957 7.89452 7.70711 7.70698C7.89464 7.51945 8 7.26509 8 6.99988C8 6.73466 7.89464 6.48031 7.70711 6.29277C7.51957 6.10523 7.26522 5.99988 7 5.99988C6.73478 5.99988 6.48043 6.10523 6.29289 6.29277C6.10536 6.48031 6 6.73466 6 6.99988C6 7.26509 6.10536 7.51945 6.29289 7.70698C6.48043 7.89452 6.73478 7.99988 7 7.99988Z" fill="white" stroke="white" stroke-width="1.25" stroke-linecap="round" stroke-linejoin="round"/>
</svg>
